<?xml version="1.0" standalone="no"?>
<!DOCTYPE svg PUBLIC "-//W3C//DTD SVG 20010904//EN"
 "http://www.w3.org/TR/2001/REC-SVG-20010904/DTD/svg10.dtd">
<svg version="1.0" xmlns="http://www.w3.org/2000/svg"
 width="20px" height="20px" viewBox="0 0 506.000000 512.000000"
 preserveAspectRatio="xMidYMid meet">

<g transform="translate(0.000000,512.000000) scale(0.100000,-0.100000)"
fill="#ffffff" stroke="none">
<path d="M663 5109 c-249 -29 -463 -181 -580 -413 -51 -102 -74 -201 -74 -328
0 -164 45 -309 135 -433 20 -27 327 -346 684 -708 356 -362 647 -662 647 -667
0 -5 -243 -256 -541 -557 -757 -768 -790 -803 -842 -900 -61 -117 -85 -213
-85 -353 -1 -137 22 -231 84 -350 201 -388 690 -517 1056 -279 44 29 264 245
723 709 l660 667 367 -371 c950 -959 980 -989 1070 -1035 211 -108 457 -112
668 -11 188 90 342 281 396 489 26 98 27 262 3 358 -20 84 -70 192 -118 258
-20 27 -327 346 -684 708 -356 362 -647 662 -647 667 0 5 243 256 541 557 757
768 790 803 842 900 61 117 85 213 85 353 1 136 -22 231 -83 349 -202 389
-691 518 -1057 280 -44 -29 -264 -245 -723 -709 l-660 -667 -367 371 c-993
1003 -978 988 -1080 1039 -134 66 -277 92 -420 76z"/>
</g>
</svg>
