<?xml version="1.0" standalone="no"?>
<!DOCTYPE svg PUBLIC "-//W3C//DTD SVG 20010904//EN"
 "http://www.w3.org/TR/2001/REC-SVG-20010904/DTD/svg10.dtd">
<svg version="1.0" xmlns="http://www.w3.org/2000/svg"
 width="512.000000pt" height="512.000000pt" viewBox="0 0 512.000000 512.000000"
 preserveAspectRatio="xMidYMid meet">

<g transform="translate(0.000000,512.000000) scale(0.100000,-0.100000)"
fill="#FFFFFF" stroke="none">
<path d="M2375 4474 c-423 -44 -762 -166 -1102 -394 -180 -121 -278 -202 -447
-368 -277 -273 -515 -595 -751 -1014 l-77 -138 77 -137 c479 -852 1052 -1405
1703 -1643 267 -98 479 -134 782 -134 300 0 504 33 770 127 686 240 1308 840
1731 1670 l60 117 -60 118 c-157 307 -372 626 -578 857 -469 528 -987 828
-1583 920 -101 15 -441 28 -525 19z m446 -440 c589 -82 1129 -444 1556 -1046
80 -113 202 -307 242 -387 l22 -42 -42 -77 c-172 -315 -383 -597 -611 -818
-355 -344 -751 -535 -1210 -585 -128 -14 -424 -6 -533 14 -539 101 -987 400
-1408 940 -88 112 -255 359 -312 462 l-37 65 28 48 c510 880 1086 1340 1794
1431 113 15 391 12 511 -5z"/>
<path d="M2432 3620 c-452 -57 -821 -396 -917 -845 -24 -108 -24 -322 0 -430
90 -418 417 -744 833 -829 224 -46 452 -19 659 79 121 57 192 105 282 190 102
96 164 181 227 310 126 260 145 536 53 807 -117 350 -430 628 -789 702 -98 20
-257 27 -348 16z m263 -435 c288 -60 505 -329 505 -625 0 -348 -292 -640 -640
-640 -237 0 -465 141 -569 350 -94 192 -94 388 0 580 126 255 419 395 704 335z"/>
</g>
</svg>
